<svg xmlns="http://www.w3.org/2000/svg" viewBox="0 0 50 50"><defs><style>.cls-1{fill:#702222;}</style></defs><g id="圖層_2" data-name="圖層 2"><g id="圖層_1-2" data-name="圖層 1"><g id="圖層_2-2" data-name="圖層 2"><g id="圖層_1-2-2" data-name="圖層 1-2"><path class="cls-1" d="M25,0A25,25,0,1,0,50,25,25,25,0,0,0,25,0ZM35.36,26.78,24.16,39a3.27,3.27,0,0,1-4.62.2l-1-.88a3.27,3.27,0,0,1-.2-4.62l8.11-8.86-8.86-8.11a3.27,3.27,0,0,1-.2-4.62l.88-1a3.28,3.28,0,0,1,4.62-.21L35.11,22.1a3.31,3.31,0,0,1,.21,4.64Z"/></g></g></g></g></svg>