<svg xmlns="http://www.w3.org/2000/svg" viewBox="0 0 50 50"><defs><style>.cls-1{fill:#702222;}</style></defs><g id="圖層_2" data-name="圖層 2"><g id="圖層_1-2" data-name="圖層 1"><g id="圖層_2-2" data-name="圖層 2"><g id="圖層_1-2-2" data-name="圖層 1-2"><path class="cls-1" d="M25,0A25,25,0,1,0,50,25,25,25,0,0,0,25,0Zm-.06,45.26A20.3,20.3,0,1,1,45.24,25v0A20.29,20.29,0,0,1,24.94,45.26Z"/><path class="cls-1" d="M34.35,24.53a3.23,3.23,0,0,0-1.05-2.27l-9.4-8.61a3.27,3.27,0,1,0-4.42,4.83l7,6.4-6.4,7a3.27,3.27,0,0,0,4.83,4.42h0l8.6-9.39A3.26,3.26,0,0,0,34.35,24.53Z"/></g></g></g></g></svg>