<svg xmlns="http://www.w3.org/2000/svg" viewBox="0 0 144.39 150.01"><defs><style>.cls-1{fill:#e6e0d2;}.cls-1,.cls-2{fill-rule:evenodd;}</style></defs><g id="圖層_2" data-name="圖層 2"><g id="圖層_1-2" data-name="圖層 1"><path class="cls-1" d="M80.76,148.19c25.3-6.86,41.17-23.73,47.12-49.06q2.46-10.62,5-21.21a97.77,97.77,0,0,0,1.7-11c1.66-19.55-3.68-36.85-17.78-50.85C100.12-.42,65.85-9.1,37.85,14.46A61.71,61.71,0,0,0,17.94,45.72c-.67,3-1.34,5.94-2,8.92L11.68,73.23,11.05,76a55.11,55.11,0,0,0-1.26,7.66c-1.37,15.58,3.74,29.25,12.54,41.8C36.1,145.09,58.6,154.19,80.76,148.19Z"/><path class="cls-2" d="M101.51,93.92a6.36,6.36,0,0,1-5.86,4.77h0A3.67,3.67,0,0,1,92,93.92L108.47,22.5a6.37,6.37,0,0,1,5.87-4.76h0A3.67,3.67,0,0,1,118,22.5Z"/><path class="cls-2" d="M53.23,96.11c.15-.18.28-.36.41-.55l.12-.2a5.7,5.7,0,0,0,.32-.59c0-.06.05-.12.07-.17a4.38,4.38,0,0,0,.24-.66s0,0,0,0a4,4,0,0,0,0-2.25v0h0c0-.05,0-.1,0-.15l-4-11h0c-1.59-4.34-3.17-8.67-4.76-13l1.33-.5c13.77-5,23-16.26,23.62-28.82C71,28.67,65,17.27,49.11,17.76l-24.32.06h-.95a5.12,5.12,0,0,0-1,.09l-.13,0a6.19,6.19,0,0,0-4.64,4.42,3.56,3.56,0,0,0,3.63,4.56l26.15,0c9.19.07,14.86,7.35,12.71,16.16-2.09,8.54-11.32,15.71-20.26,15.72-9.59,0-19.19.08-28.75,0-2.59,0-3.62.9-4.18,3.43-1.53,7-3.16,13.91-4.77,20.86l-.05.21-.3,1.33L.39,92.85.12,94A5.37,5.37,0,0,0,0,95v0a4.5,4.5,0,0,0,.07.83h0a3.55,3.55,0,0,0,.65,1.48h0a3.6,3.6,0,0,0,2.94,1.37,6.11,6.11,0,0,0,4.9-2.84l0,0c.14-.22.25-.45.37-.68a1.86,1.86,0,0,0,.1-.2,5.59,5.59,0,0,0,.32-1l.9-3.92,1.62-7h0L13.3,77l2.08-9c5.69,0,10.91.13,16.2-.06a3.28,3.28,0,0,1,3.75,2.56c1.8,5,3.65,10,5.52,15h0l4,11c.79,2.16,3.56,2.77,6.19,1.37a7.62,7.62,0,0,0,.77-.48h0a6.37,6.37,0,0,0,.63-.51l.14-.12c.18-.17.35-.35.51-.53Z"/><path class="cls-2" d="M127.77,126.26a6.36,6.36,0,0,1-5.86,4.77h0a3.67,3.67,0,0,1-3.66-4.77l16.49-71.41a6.35,6.35,0,0,1,5.86-4.77h0a3.67,3.67,0,0,1,3.66,4.77Z"/><path class="cls-2" d="M92,126.41A6.16,6.16,0,0,1,86.3,131H37.17a3.56,3.56,0,0,1-3.55-4.62h0a6.16,6.16,0,0,1,5.68-4.62H88.43A3.56,3.56,0,0,1,92,126.41Z"/><path class="cls-2" d="M106.55,56.67a6.15,6.15,0,0,1-5.68,4.61H57.92a3.55,3.55,0,0,1-3.55-4.61h0a6.16,6.16,0,0,1,5.68-4.62h43a3.56,3.56,0,0,1,3.55,4.62Z"/><path class="cls-2" d="M72.14,95.2a4.71,4.71,0,0,0,.19-.64c0-.07,0-.14.06-.21a4.45,4.45,0,0,0,.08-.81s0,0,0,0a3.77,3.77,0,0,0-1.38-3,4.74,4.74,0,0,0-5.54,0h0a5.74,5.74,0,0,0-.5.36,6,6,0,0,0-.53.49h0l0,0-16.17,17.7h0L34.92,123.83c-1.81,2-1.8,4.8,0,6.29s4.78,1.07,6.6-.92l22.22-24.33h0l7.36-8.06a5.41,5.41,0,0,0,.6-.78c.08-.14.14-.28.21-.42S72.08,95.34,72.14,95.2Z"/></g></g></svg>